<?xml version="1.0" encoding="utf-8"?>
<svg width="13" height="13" viewBox="0 0 1792 1792" xmlns="http://www.w3.org/2000/svg">
  <path fill="#ffffff" d="M 1363 787 L 621 45 C 608.333 32.333 593.333 26 576 26 C 558.666 26 543.666 32.333 531 45 L 365 211 C 352.333 223.667 346 238.667 346 256 C 346 273.333 352.333 288.333 365 301 L 896 832 L 365 1363 C 352.333 1375.667 346 1390.667 346 1408 C 346 1425.333 352.333 1440.333 365 1453 L 531 1619 C 543.666 1631.667 558.666 1638 576 1638 C 593.333 1638 608.333 1631.667 621 1619 L 1363 877 C 1375.666 864.333 1382 849.333 1382 832 C 1382 814.667 1375.666 799.667 1363 787 Z" style="transform-box: fill-box; transform-origin: 50% 50%;" transform="matrix(-1, 0, 0, -1, -0.000147, -0.000057)"/>
</svg>